<?xml version="1.0" standalone="no"?><!DOCTYPE svg PUBLIC "-//W3C//DTD SVG 1.1//EN" "http://www.w3.org/Graphics/SVG/1.1/DTD/svg11.dtd"><svg t="1712478870016" class="icon" viewBox="0 0 1024 1024" version="1.1" xmlns="http://www.w3.org/2000/svg" p-id="5386" xmlns:xlink="http://www.w3.org/1999/xlink" width="200" height="200"><path d="M435.1 657.9c-170.2 64.3-221.2 98.6-241.4 114-31.1 23.7-48.3 112.2-66.6 187.3h770c-18.3-75.1-35.5-163.6-66.6-187.3-20.2-15.4-69.4-48.8-239.5-113.2l-155.9-0.8z" fill="#FFDECC" p-id="5387"></path><path d="M435.1 657.9c-170.2 64.3-221.2 98.6-241.4 114-31.1 23.7-48.3 112.2-66.6 187.3h770c-18.3-75.1-35.5-163.6-66.6-187.3-20.2-15.4-69.4-48.8-239.5-113.2l-155.9-0.8z" fill="#83A4FF" p-id="5388"></path><path d="M594.7 529.7v162.7c-45.4 48-119.8 46.3-165.3 0V529.7c0.1-87.9 165.3-87.9 165.3 0z" fill="#A4BEFF" p-id="5389"></path><path d="M512.5 727.7s-115.3 23.7-115.3 29.8c0 6 43.9 201.8 43.9 201.8h156.6l17.9-200.9-103.1-30.7z" fill="#E5ECFF" p-id="5390"></path><path d="M429.5 660.1v32.2l35.9 266.9h-61.8l-67.9-118.8 64.9-37.3-79.2-31.9 72.8-97.5zM594.7 660.2v32.1l-36.2 266.9h61.7l67.9-118.8-64.8-37.3 79.2-31.9-64.7-94.5z" fill="#A4BEFF" p-id="5391"></path><path d="M429.5 638.6l-7.2 24.2L442.5 789l70.1-61.3-83.1-89.1z" fill="#FFFFFF" p-id="5392"></path><path d="M476.6 760.7l20 26.7h31l20-26.7-35.1-33-35.9 33zM496.6 787.5l-28.5 171.7h88l-28.5-171.7z" fill="#FF7E71" p-id="5393"></path><path d="M594.7 638.6l5.7 23.8-19 127.8-68.9-62.5 82.2-89.1z" fill="#FFFFFF" p-id="5394"></path><path d="M273 477.5c-0.2 1.6-0.3 3.1-0.4 4.7 2 1.5 4.1 3 6.2 4.3-2.2-2.8-4.2-5.8-5.8-9z" fill="#F1AD86" p-id="5395"></path><path d="M266.5 420.5c0-31.5 25.5-57.1 57.1-57.1h0.9v-36.5c-3.5-0.6-7.2-0.9-10.9-0.9-37 0-67.1 30-67.1 67.1V429c0 21.6 10.3 40.9 26.1 53.1 0.1-1.6 0.2-3.2 0.4-4.7-4.1-7.9-6.5-16.9-6.5-26.4v-30.5z" fill="#E5ECFF" p-id="5396"></path><path d="M324.4 412.5v-49h-0.9c-31.5 0-57.1 25.5-57.1 57.1v30.6c0 9.5 2.4 18.5 6.5 26.4 3.5-30.2 23.9-55.1 51.5-65.1z" fill="#83A4FF" p-id="5397"></path><path d="M273 477.5c1.7 3.2 3.6 6.2 5.8 9 10.1 6.1 22 9.7 34.7 9.7 3.7 0 7.3-0.3 10.9-0.9v-82.7c-27.6 9.9-48 34.8-51.4 64.9z" fill="#A4BEFF" p-id="5398"></path><path d="M751.2 477.5c0.2 1.6 0.3 3.1 0.4 4.7-2 1.5-4.1 3-6.2 4.3 2.2-2.8 4.2-5.8 5.8-9z" fill="#F1AD86" p-id="5399"></path><path d="M757.7 420.5c0-31.5-25.5-57.1-57.1-57.1h-0.9v-36.5c3.5-0.6 7.2-0.9 10.9-0.9 37.1 0 67.1 30 67.1 67.1V429c0 21.6-10.2 40.9-26.1 53.1-0.1-1.6-0.2-3.2-0.4-4.7 4.1-7.9 6.5-16.9 6.5-26.4v-30.5z" fill="#E5ECFF" p-id="5400"></path><path d="M699.8 412.5v-49h0.9c31.5 0 57.1 25.5 57.1 57.1v30.6c0 9.5-2.4 18.5-6.5 26.4-3.5-30.2-23.9-55.1-51.5-65.1z" fill="#83A4FF" p-id="5401"></path><path d="M751.2 477.5c-1.7 3.2-3.6 6.2-5.8 9-10.1 6.1-22 9.7-34.7 9.7-3.7 0-7.3-0.3-10.9-0.9v-82.7c27.6 9.9 48 34.8 51.4 64.9z" fill="#A4BEFF" p-id="5402"></path><path d="M703.4 527.8c0 51.7-122.1 121.5-180.5 121.5h-21.7c-59.3 0-180.5-56.8-180.5-121.5V294.4c0-99.7 80.8-108.3 180.5-108.3h21.7c99.7 0 180.5 8.6 180.5 108.3v233.4z" fill="#F0F5FF" p-id="5403"></path><path d="M513.6 602.1c48.8 0 88.4-39.6 88.4-88.4H425.2c0 48.9 39.5 88.4 88.4 88.4z" fill="#FF7E71" p-id="5404"></path><path d="M425.4 519.8c25.5 10.8 55.7 17.1 88.2 17.1s62.7-6.3 88.2-17.1c0.1-2 0.2-4.1 0.2-6.1H425.2c0 2.1 0.1 4.1 0.2 6.1z" fill="#FEFFFE" p-id="5405"></path><path d="M728 143.4c0-33.9-17.9-63.6-44.8-80.2-15.2 33.1-48.7 56.1-87.5 56.1H382.2c-15.3 0-28.8 7.6-36.7 19.1-25.3 4-44.7 25.2-46.2 51.2-0.1 0.7-0.1 1.4-0.1 2.2v197.9c0 8.6 6.5 15.8 15.4 18.1v54.3c0 3.5 3.3 6.4 7.3 6.4s7.3-2.9 7.3-6.4V407.2c7.8-2.9 13.4-9.6 13.4-17.5V246.5v-1c0-22.8 18.5-41.4 41.4-41.4h178c17.3 20.4 43.1 33.4 71.9 33.4 17.5 0 33.8-4.8 47.9-13.1v165.3c0 7.6 5.2 14.2 12.6 17.2v55.2c0 3.5 3.3 6.4 7.3 6.4s7.3-2.9 7.3-6.4V408c9.3-2.1 16.2-9.5 16.2-18.3V191.8c0-4.4-1.7-8.4-4.5-11.6 4.7-11.3 7.3-23.7 7.3-36.8z" fill="#5B79FB" p-id="5406"></path></svg>